<svg width="1392" height="40" viewBox="0 0 1392 40" fill="none" xmlns="http://www.w3.org/2000/svg">
<g clip-path="url(#clip0_54_3700)">
<g clip-path="url(#clip1_54_3700)">
<path d="M646 12.0322C641.6 12.0322 638 15.6242 638 20.0482C638 24.0482 640.928 27.3682 644.752 27.9682V22.3682H642.72V20.0482H644.752V18.2802C644.752 16.2722 645.944 15.1682 647.776 15.1682C648.648 15.1682 649.56 15.3202 649.56 15.3202V17.2962H648.552C647.56 17.2962 647.248 17.9122 647.248 18.5442V20.0482H649.472L649.112 22.3682H647.248V27.9682C651.143 27.3532 654.009 23.9912 654 20.0482C654 15.6242 650.4 12.0322 646 12.0322Z" fill="white"/>
</g>
<rect x="626.5" y="0.5" width="39" height="39" rx="19.5" stroke="white" stroke-opacity="0.06"/>
</g>
<g clip-path="url(#clip2_54_3700)">
<g clip-path="url(#clip3_54_3700)">
<path d="M692.64 12H699.36C701.92 12 704 14.08 704 16.64V23.36C704 25.923 701.923 28 699.36 28H692.64C690.08 28 688 25.92 688 23.36V16.64C688 14.077 690.077 12 692.64 12ZM692.48 13.6C690.889 13.6 689.6 14.889 689.6 16.48V23.52C689.6 25.112 690.888 26.4 692.48 26.4H699.52C701.111 26.4 702.4 25.111 702.4 23.52V16.48C702.4 14.888 701.112 13.6 699.52 13.6H692.48ZM700.2 14.8C700.752 14.8 701.2 15.248 701.2 15.8C701.2 16.352 700.752 16.8 700.2 16.8C699.648 16.8 699.2 16.352 699.2 15.8C699.2 15.248 699.648 14.8 700.2 14.8ZM696 16C698.209 16 700 17.791 700 20C700 22.209 698.209 24 696 24C693.791 24 692 22.209 692 20C692 17.791 693.791 16 696 16ZM696 17.6C694.675 17.6 693.6 18.675 693.6 20C693.6 21.325 694.675 22.4 696 22.4C697.325 22.4 698.4 21.325 698.4 20C698.4 18.675 697.325 17.6 696 17.6Z" fill="white"/>
</g>
<rect x="676.5" y="0.5" width="39" height="39" rx="19.5" stroke="white" stroke-opacity="0.06"/>
</g>
<g clip-path="url(#clip4_54_3700)">
<g clip-path="url(#clip5_54_3700)">
<path d="M752.222 12C753.204 12 754 12.796 754 13.778V26.222C754 27.204 753.204 28 752.222 28H739.778C738.796 28 738 27.204 738 26.222V13.778C738 12.796 738.796 12 739.778 12H752.222ZM751.778 25.778V21.067C751.778 19.466 750.48 18.169 748.88 18.169C748.124 18.169 747.244 18.631 746.818 19.324V18.338H744.338V25.778H746.818V21.396C746.818 20.711 747.369 20.151 748.053 20.151C748.741 20.151 749.298 20.708 749.298 21.396V25.778H751.778ZM741.449 16.942C742.274 16.942 742.942 16.274 742.942 15.449C742.942 14.622 742.276 13.947 741.449 13.947C740.619 13.947 739.947 14.619 739.947 15.449C739.947 16.276 740.622 16.942 741.449 16.942ZM742.684 25.778V18.338H740.222V25.778H742.684Z" fill="white"/>
</g>
<rect x="726.5" y="0.5" width="39" height="39" rx="19.5" stroke="white" stroke-opacity="0.06"/>
</g>
<defs>
<clipPath id="clip0_54_3700">
<rect x="626" width="40" height="40" rx="20" fill="white"/>
</clipPath>
<clipPath id="clip1_54_3700">
<rect width="16" height="16" fill="white" transform="translate(638 12)"/>
</clipPath>
<clipPath id="clip2_54_3700">
<rect x="676" width="40" height="40" rx="20" fill="white"/>
</clipPath>
<clipPath id="clip3_54_3700">
<rect width="16" height="16" fill="white" transform="translate(688 12)"/>
</clipPath>
<clipPath id="clip4_54_3700">
<rect x="726" width="40" height="40" rx="20" fill="white"/>
</clipPath>
<clipPath id="clip5_54_3700">
<rect width="16" height="16" fill="white" transform="translate(738 12)"/>
</clipPath>
</defs>
</svg>
