<svg width="69" height="49" viewBox="0 0 69 49" fill="none" xmlns="http://www.w3.org/2000/svg">
<path d="M67.045 8.00953C66.265 5.07953 64.555 2.59953 61.625 1.81953C56.315 0.399531 34.525 0.269531 34.525 0.269531C34.525 0.269531 12.735 0.399531 7.42502 1.81953C4.49502 2.59953 2.79502 5.07953 2.00502 8.00953C0.585024 13.3195 0.525024 24.2695 0.525024 24.2695C0.525024 24.2695 0.585024 35.2195 2.00502 40.5295C2.78502 43.4595 4.49502 45.9395 7.42502 46.7195C12.735 48.1395 34.525 48.2695 34.525 48.2695C34.525 48.2695 56.315 48.1395 61.625 46.7195C64.555 45.9395 66.265 43.4595 67.045 40.5295C68.465 35.2195 68.525 24.2695 68.525 24.2695C68.525 24.2695 68.465 13.3195 67.045 8.00953Z" fill="#212121" fill-opacity="0.8"/>
</svg>
