<svg width="69" height="49" viewBox="0 0 69 49" fill="none" xmlns="http://www.w3.org/2000/svg">
<path d="M67.005 8.2898C66.225 5.3598 64.515 2.8798 61.585 2.0998C56.275 0.679805 34.485 0.549805 34.485 0.549805C34.485 0.549805 12.695 0.679805 7.38499 2.0998C4.45499 2.8798 2.75499 5.3598 1.96499 8.2898C0.544985 13.5998 0.484985 24.5498 0.484985 24.5498C0.484985 24.5498 0.544985 35.4998 1.96499 40.8098C2.74499 43.7398 4.45499 46.2198 7.38499 46.9998C12.695 48.4198 34.485 48.5498 34.485 48.5498C34.485 48.5498 56.275 48.4198 61.585 46.9998C64.515 46.2198 66.225 43.7398 67.005 40.8098C68.425 35.4998 68.485 24.5498 68.485 24.5498C68.485 24.5498 68.425 13.5998 67.005 8.2898Z" fill="#212121" fill-opacity="0.8"/>
</svg>
