<svg width="69" height="49" viewBox="0 0 69 49" fill="none" xmlns="http://www.w3.org/2000/svg">
<path d="M66.995 8.55934C66.215 5.62934 64.505 3.14934 61.575 2.36934C56.265 0.949336 34.475 0.819336 34.475 0.819336C34.475 0.819336 12.685 0.949336 7.37501 2.36934C4.44501 3.14934 2.74501 5.62934 1.95501 8.55934C0.535006 13.8693 0.475006 24.8193 0.475006 24.8193C0.475006 24.8193 0.535006 35.7693 1.95501 41.0793C2.73501 44.0093 4.44501 46.4893 7.37501 47.2693C12.685 48.6893 34.475 48.8193 34.475 48.8193C34.475 48.8193 56.265 48.6893 61.575 47.2693C64.505 46.4893 66.215 44.0093 66.995 41.0793C68.415 35.7693 68.475 24.8193 68.475 24.8193C68.475 24.8193 68.415 13.8693 66.995 8.55934Z" fill="#212121" fill-opacity="0.8"/>
</svg>
